<?xml version="1.0" encoding="UTF-8" standalone="no"?>
<svg
   xmlns:dc="http://purl.org/dc/elements/1.1/"
   xmlns:cc="http://creativecommons.org/ns#"
   xmlns:rdf="http://www.w3.org/1999/02/22-rdf-syntax-ns#"
   xmlns:svg="http://www.w3.org/2000/svg"
   xmlns="http://www.w3.org/2000/svg"
   xmlns:sodipodi="http://sodipodi.sourceforge.net/DTD/sodipodi-0.dtd"
   xmlns:inkscape="http://www.inkscape.org/namespaces/inkscape"
   viewBox="0.0 0.0 348.0 348.0"
   fill="none"
   version="1.1"
   id="svg6"
   sodipodi:docname="Simon Stores.svg"
   inkscape:version="0.92.4 (5da689c313, 2019-01-14)">
  <metadata
     id="metadata12">
    <rdf:RDF>
      <cc:Work
         rdf:about="">
        <dc:format>image/svg+xml</dc:format>
        <dc:type
           rdf:resource="http://purl.org/dc/dcmitype/StillImage" />
        <dc:title />
      </cc:Work>
    </rdf:RDF>
  </metadata>
  <defs
     id="defs10" />
  <sodipodi:namedview
     pagecolor="#ffffff"
     bordercolor="#666666"
     borderopacity="1"
     objecttolerance="10"
     gridtolerance="10"
     guidetolerance="10"
     inkscape:pageopacity="0"
     inkscape:pageshadow="2"
     inkscape:window-width="1366"
     inkscape:window-height="705"
     id="namedview8"
     showgrid="false"
     inkscape:zoom="1.3563218"
     inkscape:cx="174"
     inkscape:cy="174"
     inkscape:window-x="-8"
     inkscape:window-y="-8"
     inkscape:window-maximized="1"
     inkscape:current-layer="svg6" />
  <path
     d="M5.079 5.776h336.913v337.67H5.08z"
     stroke-width="2"
     stroke="#000"
     id="path2" />
  <path
     d="M282.734 40.554c0-8.376 6.966-15.165 15.56-15.165 4.126 0 8.084 1.597 11.001 4.441 2.918 2.844 4.558 6.702 4.558 10.724 0 8.376-6.966 15.165-15.56 15.165-8.593 0-15.559-6.79-15.559-15.165z"
     stroke-width="2"
     stroke="#000"
     id="path4" />
  <rect
     id="rect3717"
     width="117.51478"
     height="120.08811"
     x="119.11524"
     y="120.33266"
     style="stroke-width:1.16341507" />
  <path
     style="fill:none;stroke:#000000;stroke-width:1.16341507px;stroke-linecap:butt;stroke-linejoin:miter;stroke-opacity:1"
     d="m 146.56393,110.89717 h 46.31971 L 211.48013,63.16472 169.37491,20.322211 125.34623,62.876315 Z"
     id="path4554"
     inkscape:connector-curvature="0"
     sodipodi:nodetypes="cccccc" />
  <path
     sodipodi:nodetypes="cccccc"
     inkscape:connector-curvature="0"
     id="path4560"
     d="m 200.95164,114.81941 32.75297,32.75297 47.42299,-22.21865 V 66.903033 l -58.78012,-6e-6 z"
     style="fill:none;stroke:#000000;stroke-width:1.16341507px;stroke-linecap:butt;stroke-linejoin:miter;stroke-opacity:1" />
  <path
     style="fill:none;stroke:#000000;stroke-width:1.16341507px;stroke-linecap:butt;stroke-linejoin:miter;stroke-opacity:1"
     d="m 237.38444,155.51934 v 46.31969 l 48.46973,20.07107 42.10523,-43.57981 -41.81682,-42.5541 z"
     id="path4562"
     inkscape:connector-curvature="0"
     sodipodi:nodetypes="cccccc" />
  <path
     sodipodi:nodetypes="cccccc"
     inkscape:connector-curvature="0"
     id="path4564"
     d="m 232.70779,209.03125 -32.75297,32.75298 20.0068,47.42298 h 60.66256 l 0.73729,-60.25469 z"
     style="fill:none;stroke:#000000;stroke-width:1.16341507px;stroke-linecap:butt;stroke-linejoin:miter;stroke-opacity:1" />
  <path
     sodipodi:nodetypes="cccccc"
     inkscape:connector-curvature="0"
     id="path4566"
     d="m 190.78313,243.04438 h -46.31972 l -20.07107,46.25787 43.5798,44.31708 41.07953,-45.50325 z"
     style="fill:none;stroke:#000000;stroke-width:1.16341507px;stroke-linecap:butt;stroke-linejoin:miter;stroke-opacity:1" />
  <path
     style="fill:none;stroke:#000000;stroke-width:1.16341507px;stroke-linecap:butt;stroke-linejoin:miter;stroke-opacity:1"
     d="m 136.39541,239.12215 -32.75297,-32.75298 -47.422978,20.0068 v 60.66254 l 57.305538,1e-5 z"
     id="path4568"
     inkscape:connector-curvature="0"
     sodipodi:nodetypes="cccccc" />
  <path
     sodipodi:nodetypes="cccccc"
     inkscape:connector-curvature="0"
     id="path4570"
     d="m 99.962624,198.42222 -1.2e-5,-46.3197 -47.73245,-20.07107 -42.842517,43.57981 41.816828,44.02867 z"
     style="fill:none;stroke:#000000;stroke-width:1.16341507px;stroke-linecap:butt;stroke-linejoin:miter;stroke-opacity:1" />
  <path
     style="fill:none;stroke:#000000;stroke-width:1.16341507px;stroke-linecap:butt;stroke-linejoin:miter;stroke-opacity:1"
     d="m 104.63926,144.9103 32.75297,-32.75297 -22.21865,-48.897562 -58.450707,1.474572 -10e-7,58.78012 z"
     id="path4572"
     inkscape:connector-curvature="0"
     sodipodi:nodetypes="cccccc" />
  <path
     style="fill:none;stroke:#000000;stroke-width:1.62694585px;stroke-linecap:butt;stroke-linejoin:miter;stroke-opacity:1"
     d="m 109.17615,198.2246 v -46.14362 l 35.69932,-33.48745 49.18064,0 34.49978,34.49979 v 48.72987 l -32.37577,31.63849 -53.8909,-0.73729 z"
     id="path4580"
     inkscape:connector-curvature="0"
     sodipodi:nodetypes="ccccccccc" />
  <path
     style="fill:none;stroke:#000000;stroke-width:1.05867863px;stroke-linecap:butt;stroke-linejoin:miter;stroke-opacity:1"
     d="m 291.22882,293.50024 h 38.33899 v 39.66494 l -39.07628,0.82635 z"
     id="path28"
     inkscape:connector-curvature="0"
     sodipodi:nodetypes="ccccc" />
</svg>
